<svg aria-roledescription="er" role="graphics-document document" viewBox="0 0 181.015625 852.826171875" style="max-width: 181.016px; background-color: white;" xmlns:xlink="http://www.w3.org/1999/xlink" xmlns="http://www.w3.org/2000/svg" width="100%" id="my-svg"><style>#my-svg{font-family:"trebuchet ms",verdana,arial,sans-serif;font-size:16px;fill:#000000;}#my-svg .error-icon{fill:#552222;}#my-svg .error-text{fill:#552222;stroke:#552222;}#my-svg .edge-thickness-normal{stroke-width:2px;}#my-svg .edge-thickness-thick{stroke-width:3.5px;}#my-svg .edge-pattern-solid{stroke-dasharray:0;}#my-svg .edge-pattern-dashed{stroke-dasharray:3;}#my-svg .edge-pattern-dotted{stroke-dasharray:2;}#my-svg .marker{fill:#000000;stroke:#000000;}#my-svg .marker.cross{stroke:#000000;}#my-svg svg{font-family:"trebuchet ms",verdana,arial,sans-serif;font-size:16px;}#my-svg .entityBox{fill:#cde498;stroke:#13540c;}#my-svg .attributeBoxOdd{fill:#ffffff;stroke:#13540c;}#my-svg .attributeBoxEven{fill:#f2f2f2;stroke:#13540c;}#my-svg .relationshipLabelBox{fill:hsl(78.1578947368, 58.4615384615%, 84.5098039216%);opacity:0.7;background-color:hsl(78.1578947368, 58.4615384615%, 84.5098039216%);}#my-svg .relationshipLabelBox rect{opacity:0.5;}#my-svg .relationshipLine{stroke:#000000;}#my-svg .entityTitleText{text-anchor:middle;font-size:18px;fill:#000000;}#my-svg #MD_PARENT_START{fill:#f5f5f5!important;stroke:#000000!important;stroke-width:1;}#my-svg #MD_PARENT_END{fill:#f5f5f5!important;stroke:#000000!important;stroke-width:1;}#my-svg :root{--mermaid-font-family:"trebuchet ms",verdana,arial,sans-serif;}</style><g/><defs><marker orient="auto" markerHeight="240" markerWidth="190" refY="7" refX="0" id="MD_PARENT_START"><path d="M 18,7 L9,13 L1,7 L9,1 Z"/></marker></defs><defs><marker orient="auto" markerHeight="28" markerWidth="20" refY="7" refX="19" id="MD_PARENT_END"><path d="M 18,7 L9,13 L1,7 L9,1 Z"/></marker></defs><defs><marker orient="auto" markerHeight="18" markerWidth="18" refY="9" refX="0" id="ONLY_ONE_START"><path d="M9,0 L9,18 M15,0 L15,18" fill="none" stroke="gray"/></marker></defs><defs><marker orient="auto" markerHeight="18" markerWidth="18" refY="9" refX="18" id="ONLY_ONE_END"><path d="M3,0 L3,18 M9,0 L9,18" fill="none" stroke="gray"/></marker></defs><defs><marker orient="auto" markerHeight="18" markerWidth="30" refY="9" refX="0" id="ZERO_OR_ONE_START"><circle r="6" cy="9" cx="21" fill="white" stroke="gray"/><path d="M9,0 L9,18" fill="none" stroke="gray"/></marker></defs><defs><marker orient="auto" markerHeight="18" markerWidth="30" refY="9" refX="30" id="ZERO_OR_ONE_END"><circle r="6" cy="9" cx="9" fill="white" stroke="gray"/><path d="M21,0 L21,18" fill="none" stroke="gray"/></marker></defs><defs><marker orient="auto" markerHeight="36" markerWidth="45" refY="18" refX="18" id="ONE_OR_MORE_START"><path d="M0,18 Q 18,0 36,18 Q 18,36 0,18 M42,9 L42,27" fill="none" stroke="gray"/></marker></defs><defs><marker orient="auto" markerHeight="36" markerWidth="45" refY="18" refX="27" id="ONE_OR_MORE_END"><path d="M3,9 L3,27 M9,18 Q27,0 45,18 Q27,36 9,18" fill="none" stroke="gray"/></marker></defs><defs><marker orient="auto" markerHeight="36" markerWidth="57" refY="18" refX="18" id="ZERO_OR_MORE_START"><circle r="6" cy="18" cx="48" fill="white" stroke="gray"/><path d="M0,18 Q18,0 36,18 Q18,36 0,18" fill="none" stroke="gray"/></marker></defs><defs><marker orient="auto" markerHeight="36" markerWidth="57" refY="18" refX="39" id="ZERO_OR_MORE_END"><circle r="6" cy="18" cx="9" fill="white" stroke="gray"/><path d="M21,18 Q39,0 57,18 Q39,36 21,18" fill="none" stroke="gray"/></marker></defs><path style="stroke: gray; fill: none;" marker-start="url(#ZERO_OR_MORE_START)" marker-end="url(#ZERO_OR_MORE_END)" d="M59.427470468058296,184.275390625L56.274194140048586,192.60872395833334C53.12091781203886,200.94205729166666,46.81436515601943,217.60872395833334,47.158442588074855,234.275390625C47.50252002013028,250.94205729166666,54.49722754026055,267.6087239583333,57.994581300325684,275.9420572916667L61.49193506039083,284.275390625" class="er relationshipLine"/><path style="stroke: gray; fill: none;" marker-start="url(#ZERO_OR_MORE_START)" marker-end="url(#ZERO_OR_MORE_END)" d="M61.49193506039083,422.55078125L57.994581300325684,430.8841145833333C54.49722754026055,439.2174479166667,47.50252002013028,455.8841145833333,48.298667308283164,472.55078125C49.09481459643606,489.2174479166667,57.68181669287211,505.8841145833333,61.975317741090144,514.2174479166666L66.26881878930817,522.55078125" class="er relationshipLine"/><path style="stroke: gray; fill: none;" marker-start="url(#ZERO_OR_ONE_START)" marker-end="url(#ZERO_OR_ONE_END)" d="M119.52368993960917,284.275390625L123.02104369967431,275.9420572916667C126.51839745973945,267.6087239583333,133.51310497986972,250.94205729166666,133.85718241192515,234.275390625C134.20125984398058,217.60872395833334,127.89470718796115,200.94205729166666,124.74143085995142,192.60872395833334L121.58815453194171,184.275390625" class="er relationshipLine"/><path style="stroke: gray; fill: none;" marker-start="url(#ZERO_OR_MORE_START)" marker-end="url(#ZERO_OR_MORE_END)" d="M117.37932289878576,716.642578125L121.23407116565481,708.3092447916666C125.08881943252383,699.9759114583334,132.79831596626192,683.3092447916666,132.35956318491293,666.642578125C131.92081040356393,649.9759114583334,123.33380830712788,633.3092447916666,119.04030725890986,624.9759114583334L114.74680621069183,616.642578125" class="er relationshipLine"/><path style="stroke: gray; fill: none;" marker-start="url(#ZERO_OR_ONE_START)" marker-end="url(#ZERO_OR_ONE_END)" d="M114.74680621069183,522.55078125L119.04030725890986,514.2174479166666C123.33380830712788,505.8841145833333,131.92081040356393,489.2174479166667,132.71695769171683,472.55078125C133.51310497986972,455.8841145833333,126.51839745973945,439.2174479166667,123.02104369967431,430.8841145833333L119.52368993960917,422.55078125" class="er relationshipLine"/><path style="stroke: gray; fill: none;" marker-start="url(#ZERO_OR_ONE_START)" marker-end="url(#ZERO_OR_ONE_END)" d="M66.26881878930817,616.642578125L61.975317741090144,624.9759114583334C57.68181669287211,633.3092447916666,49.09481459643606,649.9759114583334,48.65606181508707,666.642578125C48.21730903373808,683.3092447916666,55.92680556747616,699.9759114583334,59.7815538343452,708.3092447916666L63.63630210121424,716.642578125" class="er relationshipLine"/><g transform="translate(20,20 )" id="entity-users-33ae1e26-be31-5c1d-bf65-e859e9d0308e"><rect height="164.275390625" width="141.015625" y="0" x="0" class="er entityBox"/><text style="dominant-baseline: middle; text-anchor: middle; font-size: 12px;" transform="translate(70.5078125,12)" y="0" x="0" id="text-entity-users-33ae1e26-be31-5c1d-bf65-e859e9d0308e" class="er entityLabel">users</text><rect height="26" width="53.671875" y="24" x="0" class="er attributeBoxOdd"/><text style="dominant-baseline: middle; font-size: 10.2px;" transform="translate(5,37)" y="0" x="0" id="text-entity-users-33ae1e26-be31-5c1d-bf65-e859e9d0308e-attr-1-type" class="er entityLabel">String</text><rect height="26" width="62.34375" y="24" x="53.671875" class="er attributeBoxOdd"/><text style="dominant-baseline: middle; font-size: 10.2px;" transform="translate(58.671875,37)" y="0" x="0" id="text-entity-users-33ae1e26-be31-5c1d-bf65-e859e9d0308e-attr-1-name" class="er entityLabel">id</text><rect height="26" width="25" y="24" x="116.015625" class="er attributeBoxOdd"/><text style="dominant-baseline: middle; font-size: 10.2px;" transform="translate(121.015625,37)" y="0" x="0" id="text-entity-users-33ae1e26-be31-5c1d-bf65-e859e9d0308e-attr-1-comment" class="er entityLabel">🗝️</text><rect height="22.091796875" width="53.671875" y="50" x="0" class="er attributeBoxEven"/><text style="dominant-baseline: middle; font-size: 10.2px;" transform="translate(5,61.0458984375)" y="0" x="0" id="text-entity-users-33ae1e26-be31-5c1d-bf65-e859e9d0308e-attr-2-type" class="er entityLabel">String</text><rect height="22.091796875" width="62.34375" y="50" x="53.671875" class="er attributeBoxEven"/><text style="dominant-baseline: middle; font-size: 10.2px;" transform="translate(58.671875,61.0458984375)" y="0" x="0" id="text-entity-users-33ae1e26-be31-5c1d-bf65-e859e9d0308e-attr-2-name" class="er entityLabel">email</text><rect height="22.091796875" width="25" y="50" x="116.015625" class="er attributeBoxEven"/><text style="dominant-baseline: middle; font-size: 10.2px;" transform="translate(121.015625,61.0458984375)" y="0" x="0" id="text-entity-users-33ae1e26-be31-5c1d-bf65-e859e9d0308e-attr-2-comment" class="er entityLabel"/><rect height="22.091796875" width="53.671875" y="72.091796875" x="0" class="er attributeBoxOdd"/><text style="dominant-baseline: middle; font-size: 10.2px;" transform="translate(5,83.1376953125)" y="0" x="0" id="text-entity-users-33ae1e26-be31-5c1d-bf65-e859e9d0308e-attr-3-type" class="er entityLabel">String</text><rect height="22.091796875" width="62.34375" y="72.091796875" x="53.671875" class="er attributeBoxOdd"/><text style="dominant-baseline: middle; font-size: 10.2px;" transform="translate(58.671875,83.1376953125)" y="0" x="0" id="text-entity-users-33ae1e26-be31-5c1d-bf65-e859e9d0308e-attr-3-name" class="er entityLabel">name</text><rect height="22.091796875" width="25" y="72.091796875" x="116.015625" class="er attributeBoxOdd"/><text style="dominant-baseline: middle; font-size: 10.2px;" transform="translate(121.015625,83.1376953125)" y="0" x="0" id="text-entity-users-33ae1e26-be31-5c1d-bf65-e859e9d0308e-attr-3-comment" class="er entityLabel"/><rect height="26" width="53.671875" y="94.18359375" x="0" class="er attributeBoxEven"/><text style="dominant-baseline: middle; font-size: 10.2px;" transform="translate(5,107.18359375)" y="0" x="0" id="text-entity-users-33ae1e26-be31-5c1d-bf65-e859e9d0308e-attr-4-type" class="er entityLabel">String</text><rect height="26" width="62.34375" y="94.18359375" x="53.671875" class="er attributeBoxEven"/><text style="dominant-baseline: middle; font-size: 10.2px;" transform="translate(58.671875,107.18359375)" y="0" x="0" id="text-entity-users-33ae1e26-be31-5c1d-bf65-e859e9d0308e-attr-4-name" class="er entityLabel">avatar_url</text><rect height="26" width="25" y="94.18359375" x="116.015625" class="er attributeBoxEven"/><text style="dominant-baseline: middle; font-size: 10.2px;" transform="translate(121.015625,107.18359375)" y="0" x="0" id="text-entity-users-33ae1e26-be31-5c1d-bf65-e859e9d0308e-attr-4-comment" class="er entityLabel">❓</text><rect height="22" width="53.671875" y="120.18359375" x="0" class="er attributeBoxOdd"/><text style="dominant-baseline: middle; font-size: 10.2px;" transform="translate(5,131.18359375)" y="0" x="0" id="text-entity-users-33ae1e26-be31-5c1d-bf65-e859e9d0308e-attr-5-type" class="er entityLabel">DateTime</text><rect height="22" width="62.34375" y="120.18359375" x="53.671875" class="er attributeBoxOdd"/><text style="dominant-baseline: middle; font-size: 10.2px;" transform="translate(58.671875,131.18359375)" y="0" x="0" id="text-entity-users-33ae1e26-be31-5c1d-bf65-e859e9d0308e-attr-5-name" class="er entityLabel">created_at</text><rect height="22" width="25" y="120.18359375" x="116.015625" class="er attributeBoxOdd"/><text style="dominant-baseline: middle; font-size: 10.2px;" transform="translate(121.015625,131.18359375)" y="0" x="0" id="text-entity-users-33ae1e26-be31-5c1d-bf65-e859e9d0308e-attr-5-comment" class="er entityLabel"/><rect height="22.091796875" width="53.671875" y="142.18359375" x="0" class="er attributeBoxEven"/><text style="dominant-baseline: middle; font-size: 10.2px;" transform="translate(5,153.2294921875)" y="0" x="0" id="text-entity-users-33ae1e26-be31-5c1d-bf65-e859e9d0308e-attr-6-type" class="er entityLabel">DateTime</text><rect height="22.091796875" width="62.34375" y="142.18359375" x="53.671875" class="er attributeBoxEven"/><text style="dominant-baseline: middle; font-size: 10.2px;" transform="translate(58.671875,153.2294921875)" y="0" x="0" id="text-entity-users-33ae1e26-be31-5c1d-bf65-e859e9d0308e-attr-6-name" class="er entityLabel">updated_at</text><rect height="22.091796875" width="25" y="142.18359375" x="116.015625" class="er attributeBoxEven"/><text style="dominant-baseline: middle; font-size: 10.2px;" transform="translate(121.015625,153.2294921875)" y="0" x="0" id="text-entity-users-33ae1e26-be31-5c1d-bf65-e859e9d0308e-attr-6-comment" class="er entityLabel"/></g><g transform="translate(20,284.275390625 )" id="entity-musics-3d1bdd64-6251-5c11-a21e-bf0f1f20efd7"><rect height="138.275390625" width="141.015625" y="0" x="0" class="er entityBox"/><text style="dominant-baseline: middle; text-anchor: middle; font-size: 12px;" transform="translate(70.5078125,12)" y="0" x="0" id="text-entity-musics-3d1bdd64-6251-5c11-a21e-bf0f1f20efd7" class="er entityLabel">musics</text><rect height="26" width="53.671875" y="24" x="0" class="er attributeBoxOdd"/><text style="dominant-baseline: middle; font-size: 10.2px;" transform="translate(5,37)" y="0" x="0" id="text-entity-musics-3d1bdd64-6251-5c11-a21e-bf0f1f20efd7-attr-1-type" class="er entityLabel">String</text><rect height="26" width="62.34375" y="24" x="53.671875" class="er attributeBoxOdd"/><text style="dominant-baseline: middle; font-size: 10.2px;" transform="translate(58.671875,37)" y="0" x="0" id="text-entity-musics-3d1bdd64-6251-5c11-a21e-bf0f1f20efd7-attr-1-name" class="er entityLabel">id</text><rect height="26" width="25" y="24" x="116.015625" class="er attributeBoxOdd"/><text style="dominant-baseline: middle; font-size: 10.2px;" transform="translate(121.015625,37)" y="0" x="0" id="text-entity-musics-3d1bdd64-6251-5c11-a21e-bf0f1f20efd7-attr-1-comment" class="er entityLabel">🗝️</text><rect height="22.091796875" width="53.671875" y="50" x="0" class="er attributeBoxEven"/><text style="dominant-baseline: middle; font-size: 10.2px;" transform="translate(5,61.0458984375)" y="0" x="0" id="text-entity-musics-3d1bdd64-6251-5c11-a21e-bf0f1f20efd7-attr-2-type" class="er entityLabel">String</text><rect height="22.091796875" width="62.34375" y="50" x="53.671875" class="er attributeBoxEven"/><text style="dominant-baseline: middle; font-size: 10.2px;" transform="translate(58.671875,61.0458984375)" y="0" x="0" id="text-entity-musics-3d1bdd64-6251-5c11-a21e-bf0f1f20efd7-attr-2-name" class="er entityLabel">name</text><rect height="22.091796875" width="25" y="50" x="116.015625" class="er attributeBoxEven"/><text style="dominant-baseline: middle; font-size: 10.2px;" transform="translate(121.015625,61.0458984375)" y="0" x="0" id="text-entity-musics-3d1bdd64-6251-5c11-a21e-bf0f1f20efd7-attr-2-comment" class="er entityLabel"/><rect height="22.091796875" width="53.671875" y="72.091796875" x="0" class="er attributeBoxOdd"/><text style="dominant-baseline: middle; font-size: 10.2px;" transform="translate(5,83.1376953125)" y="0" x="0" id="text-entity-musics-3d1bdd64-6251-5c11-a21e-bf0f1f20efd7-attr-3-type" class="er entityLabel">String</text><rect height="22.091796875" width="62.34375" y="72.091796875" x="53.671875" class="er attributeBoxOdd"/><text style="dominant-baseline: middle; font-size: 10.2px;" transform="translate(58.671875,83.1376953125)" y="0" x="0" id="text-entity-musics-3d1bdd64-6251-5c11-a21e-bf0f1f20efd7-attr-3-name" class="er entityLabel">artist</text><rect height="22.091796875" width="25" y="72.091796875" x="116.015625" class="er attributeBoxOdd"/><text style="dominant-baseline: middle; font-size: 10.2px;" transform="translate(121.015625,83.1376953125)" y="0" x="0" id="text-entity-musics-3d1bdd64-6251-5c11-a21e-bf0f1f20efd7-attr-3-comment" class="er entityLabel"/><rect height="22" width="53.671875" y="94.18359375" x="0" class="er attributeBoxEven"/><text style="dominant-baseline: middle; font-size: 10.2px;" transform="translate(5,105.18359375)" y="0" x="0" id="text-entity-musics-3d1bdd64-6251-5c11-a21e-bf0f1f20efd7-attr-4-type" class="er entityLabel">DateTime</text><rect height="22" width="62.34375" y="94.18359375" x="53.671875" class="er attributeBoxEven"/><text style="dominant-baseline: middle; font-size: 10.2px;" transform="translate(58.671875,105.18359375)" y="0" x="0" id="text-entity-musics-3d1bdd64-6251-5c11-a21e-bf0f1f20efd7-attr-4-name" class="er entityLabel">created_at</text><rect height="22" width="25" y="94.18359375" x="116.015625" class="er attributeBoxEven"/><text style="dominant-baseline: middle; font-size: 10.2px;" transform="translate(121.015625,105.18359375)" y="0" x="0" id="text-entity-musics-3d1bdd64-6251-5c11-a21e-bf0f1f20efd7-attr-4-comment" class="er entityLabel"/><rect height="22.091796875" width="53.671875" y="116.18359375" x="0" class="er attributeBoxOdd"/><text style="dominant-baseline: middle; font-size: 10.2px;" transform="translate(5,127.2294921875)" y="0" x="0" id="text-entity-musics-3d1bdd64-6251-5c11-a21e-bf0f1f20efd7-attr-5-type" class="er entityLabel">DateTime</text><rect height="22.091796875" width="62.34375" y="116.18359375" x="53.671875" class="er attributeBoxOdd"/><text style="dominant-baseline: middle; font-size: 10.2px;" transform="translate(58.671875,127.2294921875)" y="0" x="0" id="text-entity-musics-3d1bdd64-6251-5c11-a21e-bf0f1f20efd7-attr-5-name" class="er entityLabel">updated_at</text><rect height="22.091796875" width="25" y="116.18359375" x="116.015625" class="er attributeBoxOdd"/><text style="dominant-baseline: middle; font-size: 10.2px;" transform="translate(121.015625,127.2294921875)" y="0" x="0" id="text-entity-musics-3d1bdd64-6251-5c11-a21e-bf0f1f20efd7-attr-5-comment" class="er entityLabel"/></g><g transform="translate(20,716.642578125 )" id="entity-themes-597c35e2-9070-5d5e-b084-c2498e4e6ea6"><rect height="116.18359375" width="141.015625" y="0" x="0" class="er entityBox"/><text style="dominant-baseline: middle; text-anchor: middle; font-size: 12px;" transform="translate(70.5078125,12)" y="0" x="0" id="text-entity-themes-597c35e2-9070-5d5e-b084-c2498e4e6ea6" class="er entityLabel">themes</text><rect height="26" width="53.671875" y="24" x="0" class="er attributeBoxOdd"/><text style="dominant-baseline: middle; font-size: 10.2px;" transform="translate(5,37)" y="0" x="0" id="text-entity-themes-597c35e2-9070-5d5e-b084-c2498e4e6ea6-attr-1-type" class="er entityLabel">String</text><rect height="26" width="62.34375" y="24" x="53.671875" class="er attributeBoxOdd"/><text style="dominant-baseline: middle; font-size: 10.2px;" transform="translate(58.671875,37)" y="0" x="0" id="text-entity-themes-597c35e2-9070-5d5e-b084-c2498e4e6ea6-attr-1-name" class="er entityLabel">id</text><rect height="26" width="25" y="24" x="116.015625" class="er attributeBoxOdd"/><text style="dominant-baseline: middle; font-size: 10.2px;" transform="translate(121.015625,37)" y="0" x="0" id="text-entity-themes-597c35e2-9070-5d5e-b084-c2498e4e6ea6-attr-1-comment" class="er entityLabel">🗝️</text><rect height="22.091796875" width="53.671875" y="50" x="0" class="er attributeBoxEven"/><text style="dominant-baseline: middle; font-size: 10.2px;" transform="translate(5,61.0458984375)" y="0" x="0" id="text-entity-themes-597c35e2-9070-5d5e-b084-c2498e4e6ea6-attr-2-type" class="er entityLabel">String</text><rect height="22.091796875" width="62.34375" y="50" x="53.671875" class="er attributeBoxEven"/><text style="dominant-baseline: middle; font-size: 10.2px;" transform="translate(58.671875,61.0458984375)" y="0" x="0" id="text-entity-themes-597c35e2-9070-5d5e-b084-c2498e4e6ea6-attr-2-name" class="er entityLabel">name</text><rect height="22.091796875" width="25" y="50" x="116.015625" class="er attributeBoxEven"/><text style="dominant-baseline: middle; font-size: 10.2px;" transform="translate(121.015625,61.0458984375)" y="0" x="0" id="text-entity-themes-597c35e2-9070-5d5e-b084-c2498e4e6ea6-attr-2-comment" class="er entityLabel"/><rect height="22" width="53.671875" y="72.091796875" x="0" class="er attributeBoxOdd"/><text style="dominant-baseline: middle; font-size: 10.2px;" transform="translate(5,83.091796875)" y="0" x="0" id="text-entity-themes-597c35e2-9070-5d5e-b084-c2498e4e6ea6-attr-3-type" class="er entityLabel">DateTime</text><rect height="22" width="62.34375" y="72.091796875" x="53.671875" class="er attributeBoxOdd"/><text style="dominant-baseline: middle; font-size: 10.2px;" transform="translate(58.671875,83.091796875)" y="0" x="0" id="text-entity-themes-597c35e2-9070-5d5e-b084-c2498e4e6ea6-attr-3-name" class="er entityLabel">created_at</text><rect height="22" width="25" y="72.091796875" x="116.015625" class="er attributeBoxOdd"/><text style="dominant-baseline: middle; font-size: 10.2px;" transform="translate(121.015625,83.091796875)" y="0" x="0" id="text-entity-themes-597c35e2-9070-5d5e-b084-c2498e4e6ea6-attr-3-comment" class="er entityLabel"/><rect height="22.091796875" width="53.671875" y="94.091796875" x="0" class="er attributeBoxEven"/><text style="dominant-baseline: middle; font-size: 10.2px;" transform="translate(5,105.1376953125)" y="0" x="0" id="text-entity-themes-597c35e2-9070-5d5e-b084-c2498e4e6ea6-attr-4-type" class="er entityLabel">DateTime</text><rect height="22.091796875" width="62.34375" y="94.091796875" x="53.671875" class="er attributeBoxEven"/><text style="dominant-baseline: middle; font-size: 10.2px;" transform="translate(58.671875,105.1376953125)" y="0" x="0" id="text-entity-themes-597c35e2-9070-5d5e-b084-c2498e4e6ea6-attr-4-name" class="er entityLabel">updated_at</text><rect height="22.091796875" width="25" y="94.091796875" x="116.015625" class="er attributeBoxEven"/><text style="dominant-baseline: middle; font-size: 10.2px;" transform="translate(121.015625,105.1376953125)" y="0" x="0" id="text-entity-themes-597c35e2-9070-5d5e-b084-c2498e4e6ea6-attr-4-comment" class="er entityLabel"/></g><g transform="translate(20,522.55078125 )" id="entity-musicsthemes-a6ff65f5-4cb7-5fde-a507-3639874bc162"><rect height="94.091796875" width="141.015625" y="0" x="0" class="er entityBox"/><text style="dominant-baseline: middle; text-anchor: middle; font-size: 12px;" transform="translate(70.5078125,12)" y="0" x="0" id="text-entity-musicsthemes-a6ff65f5-4cb7-5fde-a507-3639874bc162" class="er entityLabel">musics_themes</text><rect height="26" width="53.671875" y="24" x="0" class="er attributeBoxOdd"/><text style="dominant-baseline: middle; font-size: 10.2px;" transform="translate(5,37)" y="0" x="0" id="text-entity-musicsthemes-a6ff65f5-4cb7-5fde-a507-3639874bc162-attr-1-type" class="er entityLabel">String</text><rect height="26" width="62.34375" y="24" x="53.671875" class="er attributeBoxOdd"/><text style="dominant-baseline: middle; font-size: 10.2px;" transform="translate(58.671875,37)" y="0" x="0" id="text-entity-musicsthemes-a6ff65f5-4cb7-5fde-a507-3639874bc162-attr-1-name" class="er entityLabel">id</text><rect height="26" width="25" y="24" x="116.015625" class="er attributeBoxOdd"/><text style="dominant-baseline: middle; font-size: 10.2px;" transform="translate(121.015625,37)" y="0" x="0" id="text-entity-musicsthemes-a6ff65f5-4cb7-5fde-a507-3639874bc162-attr-1-comment" class="er entityLabel">🗝️</text><rect height="22" width="53.671875" y="50" x="0" class="er attributeBoxEven"/><text style="dominant-baseline: middle; font-size: 10.2px;" transform="translate(5,61)" y="0" x="0" id="text-entity-musicsthemes-a6ff65f5-4cb7-5fde-a507-3639874bc162-attr-2-type" class="er entityLabel">DateTime</text><rect height="22" width="62.34375" y="50" x="53.671875" class="er attributeBoxEven"/><text style="dominant-baseline: middle; font-size: 10.2px;" transform="translate(58.671875,61)" y="0" x="0" id="text-entity-musicsthemes-a6ff65f5-4cb7-5fde-a507-3639874bc162-attr-2-name" class="er entityLabel">created_at</text><rect height="22" width="25" y="50" x="116.015625" class="er attributeBoxEven"/><text style="dominant-baseline: middle; font-size: 10.2px;" transform="translate(121.015625,61)" y="0" x="0" id="text-entity-musicsthemes-a6ff65f5-4cb7-5fde-a507-3639874bc162-attr-2-comment" class="er entityLabel"/><rect height="22.091796875" width="53.671875" y="72" x="0" class="er attributeBoxOdd"/><text style="dominant-baseline: middle; font-size: 10.2px;" transform="translate(5,83.0458984375)" y="0" x="0" id="text-entity-musicsthemes-a6ff65f5-4cb7-5fde-a507-3639874bc162-attr-3-type" class="er entityLabel">DateTime</text><rect height="22.091796875" width="62.34375" y="72" x="53.671875" class="er attributeBoxOdd"/><text style="dominant-baseline: middle; font-size: 10.2px;" transform="translate(58.671875,83.0458984375)" y="0" x="0" id="text-entity-musicsthemes-a6ff65f5-4cb7-5fde-a507-3639874bc162-attr-3-name" class="er entityLabel">updated_at</text><rect height="22.091796875" width="25" y="72" x="116.015625" class="er attributeBoxOdd"/><text style="dominant-baseline: middle; font-size: 10.2px;" transform="translate(121.015625,83.0458984375)" y="0" x="0" id="text-entity-musicsthemes-a6ff65f5-4cb7-5fde-a507-3639874bc162-attr-3-comment" class="er entityLabel"/></g><rect height="14" width="29.296875" y="227.53587341308594" x="32.51619338989258" class="er relationshipLabelBox"/><text style="text-anchor: middle; dominant-baseline: middle; font-size: 12px;" y="234.53587341308594" x="47.16463088989258" id="rel1" class="er relationshipLabel">Music</text><rect height="14" width="39.234375" y="466.2430725097656" x="28.71924591064453" class="er relationshipLabelBox"/><text style="text-anchor: middle; dominant-baseline: middle; font-size: 12px;" y="473.2430725097656" x="48.33643341064453" id="rel2" class="er relationshipLabel">themes</text><rect height="14" width="23.859375" y="227.535888671875" x="121.92131042480469" class="er relationshipLabelBox"/><text style="text-anchor: middle; dominant-baseline: middle; font-size: 12px;" y="234.535888671875" x="133.8509979248047" id="rel3" class="er relationshipLabel">User</text><rect height="14" width="35.609375" y="659.2453002929688" x="114.54287719726562" class="er relationshipLabelBox"/><text style="text-anchor: middle; dominant-baseline: middle; font-size: 12px;" y="666.2453002929688" x="132.34756469726562" id="rel4" class="er relationshipLabel">musics</text><rect height="14" width="29.296875" y="466.2430725097656" x="118.03076171875" class="er relationshipLabelBox"/><text style="text-anchor: middle; dominant-baseline: middle; font-size: 12px;" y="473.2430725097656" x="132.67919921875" id="rel5" class="er relationshipLabel">Music</text><rect height="14" width="36.578125" y="659.2453002929688" x="30.37902069091797" class="er relationshipLabelBox"/><text style="text-anchor: middle; dominant-baseline: middle; font-size: 12px;" y="666.2453002929688" x="48.66808319091797" id="rel6" class="er relationshipLabel">Theme</text></svg>