<svg aria-roledescription="er" role="graphics-document document" viewBox="0 0 358.515625 354.3671875" style="max-width: 358.516px; background-color: white;" xmlns:xlink="http://www.w3.org/1999/xlink" xmlns="http://www.w3.org/2000/svg" width="100%" id="my-svg"><style>#my-svg{font-family:"trebuchet ms",verdana,arial,sans-serif;font-size:16px;fill:#000000;}#my-svg .error-icon{fill:#552222;}#my-svg .error-text{fill:#552222;stroke:#552222;}#my-svg .edge-thickness-normal{stroke-width:2px;}#my-svg .edge-thickness-thick{stroke-width:3.5px;}#my-svg .edge-pattern-solid{stroke-dasharray:0;}#my-svg .edge-pattern-dashed{stroke-dasharray:3;}#my-svg .edge-pattern-dotted{stroke-dasharray:2;}#my-svg .marker{fill:#000000;stroke:#000000;}#my-svg .marker.cross{stroke:#000000;}#my-svg svg{font-family:"trebuchet ms",verdana,arial,sans-serif;font-size:16px;}#my-svg .entityBox{fill:#cde498;stroke:#13540c;}#my-svg .attributeBoxOdd{fill:#ffffff;stroke:#13540c;}#my-svg .attributeBoxEven{fill:#f2f2f2;stroke:#13540c;}#my-svg .relationshipLabelBox{fill:hsl(78.1578947368, 58.4615384615%, 84.5098039216%);opacity:0.7;background-color:hsl(78.1578947368, 58.4615384615%, 84.5098039216%);}#my-svg .relationshipLabelBox rect{opacity:0.5;}#my-svg .relationshipLine{stroke:#000000;}#my-svg .entityTitleText{text-anchor:middle;font-size:18px;fill:#000000;}#my-svg #MD_PARENT_START{fill:#f5f5f5!important;stroke:#000000!important;stroke-width:1;}#my-svg #MD_PARENT_END{fill:#f5f5f5!important;stroke:#000000!important;stroke-width:1;}#my-svg :root{--mermaid-font-family:"trebuchet ms",verdana,arial,sans-serif;}</style><g/><defs><marker orient="auto" markerHeight="240" markerWidth="190" refY="7" refX="0" id="MD_PARENT_START"><path d="M 18,7 L9,13 L1,7 L9,1 Z"/></marker></defs><defs><marker orient="auto" markerHeight="28" markerWidth="20" refY="7" refX="19" id="MD_PARENT_END"><path d="M 18,7 L9,13 L1,7 L9,1 Z"/></marker></defs><defs><marker orient="auto" markerHeight="18" markerWidth="18" refY="9" refX="0" id="ONLY_ONE_START"><path d="M9,0 L9,18 M15,0 L15,18" fill="none" stroke="gray"/></marker></defs><defs><marker orient="auto" markerHeight="18" markerWidth="18" refY="9" refX="18" id="ONLY_ONE_END"><path d="M3,0 L3,18 M9,0 L9,18" fill="none" stroke="gray"/></marker></defs><defs><marker orient="auto" markerHeight="18" markerWidth="30" refY="9" refX="0" id="ZERO_OR_ONE_START"><circle r="6" cy="9" cx="21" fill="white" stroke="gray"/><path d="M9,0 L9,18" fill="none" stroke="gray"/></marker></defs><defs><marker orient="auto" markerHeight="18" markerWidth="30" refY="9" refX="30" id="ZERO_OR_ONE_END"><circle r="6" cy="9" cx="9" fill="white" stroke="gray"/><path d="M21,0 L21,18" fill="none" stroke="gray"/></marker></defs><defs><marker orient="auto" markerHeight="36" markerWidth="45" refY="18" refX="18" id="ONE_OR_MORE_START"><path d="M0,18 Q 18,0 36,18 Q 18,36 0,18 M42,9 L42,27" fill="none" stroke="gray"/></marker></defs><defs><marker orient="auto" markerHeight="36" markerWidth="45" refY="18" refX="27" id="ONE_OR_MORE_END"><path d="M3,9 L3,27 M9,18 Q27,0 45,18 Q27,36 9,18" fill="none" stroke="gray"/></marker></defs><defs><marker orient="auto" markerHeight="36" markerWidth="57" refY="18" refX="18" id="ZERO_OR_MORE_START"><circle r="6" cy="18" cx="48" fill="white" stroke="gray"/><path d="M0,18 Q18,0 36,18 Q18,36 0,18" fill="none" stroke="gray"/></marker></defs><defs><marker orient="auto" markerHeight="36" markerWidth="57" refY="18" refX="39" id="ZERO_OR_MORE_END"><circle r="6" cy="18" cx="9" fill="white" stroke="gray"/><path d="M21,18 Q39,0 57,18 Q39,36 21,18" fill="none" stroke="gray"/></marker></defs><path style="stroke: gray; fill: none;" marker-start="url(#ZERO_OR_MORE_START)" marker-end="url(#ZERO_OR_MORE_END)" d="M51.96613474528536,140.18359375L48.18141437107113,148.51692708333334C44.396693996856904,156.85026041666666,36.827253248428455,173.51692708333334,37.33400424540638,190.18359375C37.84075524238431,206.85026041666666,46.42369798476863,223.51692708333334,50.71516935596079,231.85026041666666L55.00664072715294,240.18359375" class="er relationshipLine"/><path style="stroke: gray; fill: none;" marker-start="url(#ZERO_OR_ONE_START)" marker-end="url(#ZERO_OR_ONE_END)" d="M103.50898427284706,240.18359375L107.80045564403922,231.85026041666666C112.09192701523136,223.51692708333334,120.67486975761568,206.85026041666666,121.18162075459362,190.18359375C121.68837175157155,173.51692708333334,114.11893100314309,156.85026041666666,110.33421062892887,148.51692708333334L106.54949025471464,140.18359375" class="er relationshipLine"/><g transform="translate(20,20 )" id="entity-users-33ae1e26-be31-5c1d-bf65-e859e9d0308e"><rect height="120.18359375" width="118.515625" y="0" x="0" class="er entityBox"/><text style="dominant-baseline: middle; text-anchor: middle; font-size: 12px;" transform="translate(59.2578125,12)" y="0" x="0" id="text-entity-users-33ae1e26-be31-5c1d-bf65-e859e9d0308e" class="er entityLabel">users</text><rect height="26" width="36.53125" y="24" x="0" class="er attributeBoxOdd"/><text style="dominant-baseline: middle; font-size: 10.2px;" transform="translate(5,37)" y="0" x="0" id="text-entity-users-33ae1e26-be31-5c1d-bf65-e859e9d0308e-attr-1-type" class="er entityLabel">String</text><rect height="26" width="56.984375" y="24" x="36.53125" class="er attributeBoxOdd"/><text style="dominant-baseline: middle; font-size: 10.2px;" transform="translate(41.53125,37)" y="0" x="0" id="text-entity-users-33ae1e26-be31-5c1d-bf65-e859e9d0308e-attr-1-name" class="er entityLabel">id</text><rect height="26" width="25" y="24" x="93.515625" class="er attributeBoxOdd"/><text style="dominant-baseline: middle; font-size: 10.2px;" transform="translate(98.515625,37)" y="0" x="0" id="text-entity-users-33ae1e26-be31-5c1d-bf65-e859e9d0308e-attr-1-comment" class="er entityLabel">🗝️</text><rect height="22.091796875" width="36.53125" y="50" x="0" class="er attributeBoxEven"/><text style="dominant-baseline: middle; font-size: 10.2px;" transform="translate(5,61.0458984375)" y="0" x="0" id="text-entity-users-33ae1e26-be31-5c1d-bf65-e859e9d0308e-attr-2-type" class="er entityLabel">String</text><rect height="22.091796875" width="56.984375" y="50" x="36.53125" class="er attributeBoxEven"/><text style="dominant-baseline: middle; font-size: 10.2px;" transform="translate(41.53125,61.0458984375)" y="0" x="0" id="text-entity-users-33ae1e26-be31-5c1d-bf65-e859e9d0308e-attr-2-name" class="er entityLabel">email</text><rect height="22.091796875" width="25" y="50" x="93.515625" class="er attributeBoxEven"/><text style="dominant-baseline: middle; font-size: 10.2px;" transform="translate(98.515625,61.0458984375)" y="0" x="0" id="text-entity-users-33ae1e26-be31-5c1d-bf65-e859e9d0308e-attr-2-comment" class="er entityLabel"/><rect height="22.091796875" width="36.53125" y="72.091796875" x="0" class="er attributeBoxOdd"/><text style="dominant-baseline: middle; font-size: 10.2px;" transform="translate(5,83.1376953125)" y="0" x="0" id="text-entity-users-33ae1e26-be31-5c1d-bf65-e859e9d0308e-attr-3-type" class="er entityLabel">String</text><rect height="22.091796875" width="56.984375" y="72.091796875" x="36.53125" class="er attributeBoxOdd"/><text style="dominant-baseline: middle; font-size: 10.2px;" transform="translate(41.53125,83.1376953125)" y="0" x="0" id="text-entity-users-33ae1e26-be31-5c1d-bf65-e859e9d0308e-attr-3-name" class="er entityLabel">name</text><rect height="22.091796875" width="25" y="72.091796875" x="93.515625" class="er attributeBoxOdd"/><text style="dominant-baseline: middle; font-size: 10.2px;" transform="translate(98.515625,83.1376953125)" y="0" x="0" id="text-entity-users-33ae1e26-be31-5c1d-bf65-e859e9d0308e-attr-3-comment" class="er entityLabel"/><rect height="26" width="36.53125" y="94.18359375" x="0" class="er attributeBoxEven"/><text style="dominant-baseline: middle; font-size: 10.2px;" transform="translate(5,107.18359375)" y="0" x="0" id="text-entity-users-33ae1e26-be31-5c1d-bf65-e859e9d0308e-attr-4-type" class="er entityLabel">String</text><rect height="26" width="56.984375" y="94.18359375" x="36.53125" class="er attributeBoxEven"/><text style="dominant-baseline: middle; font-size: 10.2px;" transform="translate(41.53125,107.18359375)" y="0" x="0" id="text-entity-users-33ae1e26-be31-5c1d-bf65-e859e9d0308e-attr-4-name" class="er entityLabel">avatar_url</text><rect height="26" width="25" y="94.18359375" x="93.515625" class="er attributeBoxEven"/><text style="dominant-baseline: middle; font-size: 10.2px;" transform="translate(98.515625,107.18359375)" y="0" x="0" id="text-entity-users-33ae1e26-be31-5c1d-bf65-e859e9d0308e-attr-4-comment" class="er entityLabel">❓</text></g><g transform="translate(29.2578125,240.18359375 )" id="entity-musics-3d1bdd64-6251-5c11-a21e-bf0f1f20efd7"><rect height="94.18359375" width="100" y="0" x="0" class="er entityBox"/><text style="dominant-baseline: middle; text-anchor: middle; font-size: 12px;" transform="translate(50,12)" y="0" x="0" id="text-entity-musics-3d1bdd64-6251-5c11-a21e-bf0f1f20efd7" class="er entityLabel">musics</text><rect height="26" width="37.697916666666664" y="24" x="0" class="er attributeBoxOdd"/><text style="dominant-baseline: middle; font-size: 10.2px;" transform="translate(5,37)" y="0" x="0" id="text-entity-musics-3d1bdd64-6251-5c11-a21e-bf0f1f20efd7-attr-1-type" class="er entityLabel">String</text><rect height="26" width="36.135416666666664" y="24" x="37.697916666666664" class="er attributeBoxOdd"/><text style="dominant-baseline: middle; font-size: 10.2px;" transform="translate(42.697916666666664,37)" y="0" x="0" id="text-entity-musics-3d1bdd64-6251-5c11-a21e-bf0f1f20efd7-attr-1-name" class="er entityLabel">id</text><rect height="26" width="26.166666666666668" y="24" x="73.83333333333333" class="er attributeBoxOdd"/><text style="dominant-baseline: middle; font-size: 10.2px;" transform="translate(78.83333333333333,37)" y="0" x="0" id="text-entity-musics-3d1bdd64-6251-5c11-a21e-bf0f1f20efd7-attr-1-comment" class="er entityLabel">🗝️</text><rect height="22.091796875" width="37.697916666666664" y="50" x="0" class="er attributeBoxEven"/><text style="dominant-baseline: middle; font-size: 10.2px;" transform="translate(5,61.0458984375)" y="0" x="0" id="text-entity-musics-3d1bdd64-6251-5c11-a21e-bf0f1f20efd7-attr-2-type" class="er entityLabel">String</text><rect height="22.091796875" width="36.135416666666664" y="50" x="37.697916666666664" class="er attributeBoxEven"/><text style="dominant-baseline: middle; font-size: 10.2px;" transform="translate(42.697916666666664,61.0458984375)" y="0" x="0" id="text-entity-musics-3d1bdd64-6251-5c11-a21e-bf0f1f20efd7-attr-2-name" class="er entityLabel">name</text><rect height="22.091796875" width="26.166666666666668" y="50" x="73.83333333333333" class="er attributeBoxEven"/><text style="dominant-baseline: middle; font-size: 10.2px;" transform="translate(78.83333333333333,61.0458984375)" y="0" x="0" id="text-entity-musics-3d1bdd64-6251-5c11-a21e-bf0f1f20efd7-attr-2-comment" class="er entityLabel"/><rect height="22.091796875" width="37.697916666666664" y="72.091796875" x="0" class="er attributeBoxOdd"/><text style="dominant-baseline: middle; font-size: 10.2px;" transform="translate(5,83.1376953125)" y="0" x="0" id="text-entity-musics-3d1bdd64-6251-5c11-a21e-bf0f1f20efd7-attr-3-type" class="er entityLabel">String</text><rect height="22.091796875" width="36.135416666666664" y="72.091796875" x="37.697916666666664" class="er attributeBoxOdd"/><text style="dominant-baseline: middle; font-size: 10.2px;" transform="translate(42.697916666666664,83.1376953125)" y="0" x="0" id="text-entity-musics-3d1bdd64-6251-5c11-a21e-bf0f1f20efd7-attr-3-name" class="er entityLabel">artist</text><rect height="22.091796875" width="26.166666666666668" y="72.091796875" x="73.83333333333333" class="er attributeBoxOdd"/><text style="dominant-baseline: middle; font-size: 10.2px;" transform="translate(78.83333333333333,83.1376953125)" y="0" x="0" id="text-entity-musics-3d1bdd64-6251-5c11-a21e-bf0f1f20efd7-attr-3-comment" class="er entityLabel"/></g><g transform="translate(238.515625,44.0458984375 )" id="entity-themes-597c35e2-9070-5d5e-b084-c2498e4e6ea6"><rect height="72.091796875" width="100" y="0" x="0" class="er entityBox"/><text style="dominant-baseline: middle; text-anchor: middle; font-size: 12px;" transform="translate(50,12)" y="0" x="0" id="text-entity-themes-597c35e2-9070-5d5e-b084-c2498e4e6ea6" class="er entityLabel">themes</text><rect height="26" width="37.697916666666664" y="24" x="0" class="er attributeBoxOdd"/><text style="dominant-baseline: middle; font-size: 10.2px;" transform="translate(5,37)" y="0" x="0" id="text-entity-themes-597c35e2-9070-5d5e-b084-c2498e4e6ea6-attr-1-type" class="er entityLabel">String</text><rect height="26" width="36.135416666666664" y="24" x="37.697916666666664" class="er attributeBoxOdd"/><text style="dominant-baseline: middle; font-size: 10.2px;" transform="translate(42.697916666666664,37)" y="0" x="0" id="text-entity-themes-597c35e2-9070-5d5e-b084-c2498e4e6ea6-attr-1-name" class="er entityLabel">id</text><rect height="26" width="26.166666666666668" y="24" x="73.83333333333333" class="er attributeBoxOdd"/><text style="dominant-baseline: middle; font-size: 10.2px;" transform="translate(78.83333333333333,37)" y="0" x="0" id="text-entity-themes-597c35e2-9070-5d5e-b084-c2498e4e6ea6-attr-1-comment" class="er entityLabel">🗝️</text><rect height="22.091796875" width="37.697916666666664" y="50" x="0" class="er attributeBoxEven"/><text style="dominant-baseline: middle; font-size: 10.2px;" transform="translate(5,61.0458984375)" y="0" x="0" id="text-entity-themes-597c35e2-9070-5d5e-b084-c2498e4e6ea6-attr-2-type" class="er entityLabel">String</text><rect height="22.091796875" width="36.135416666666664" y="50" x="37.697916666666664" class="er attributeBoxEven"/><text style="dominant-baseline: middle; font-size: 10.2px;" transform="translate(42.697916666666664,61.0458984375)" y="0" x="0" id="text-entity-themes-597c35e2-9070-5d5e-b084-c2498e4e6ea6-attr-2-name" class="er entityLabel">name</text><rect height="22.091796875" width="26.166666666666668" y="50" x="73.83333333333333" class="er attributeBoxEven"/><text style="dominant-baseline: middle; font-size: 10.2px;" transform="translate(78.83333333333333,61.0458984375)" y="0" x="0" id="text-entity-themes-597c35e2-9070-5d5e-b084-c2498e4e6ea6-attr-2-comment" class="er entityLabel"/></g><rect height="14" width="29.296875" y="183.63885498046875" x="22.70148468017578" class="er relationshipLabelBox"/><text style="text-anchor: middle; dominant-baseline: middle; font-size: 12px;" y="190.63885498046875" x="37.34992218017578" id="rel1" class="er relationshipLabel">Music</text><rect height="14" width="23.859375" y="183.6388397216797" x="109.23601531982422" class="er relationshipLabelBox"/><text style="text-anchor: middle; dominant-baseline: middle; font-size: 12px;" y="190.6388397216797" x="121.16570281982422" id="rel2" class="er relationshipLabel">User</text></svg>